HIERARCHY
ROOT Hips
{
	OFFSET 0.00000 0.00000 0.00000
	CHANNELS 6 Xposition Yposition Zposition Zrotation Yrotation Xrotation 
	JOINT LHipJoint
	{
		OFFSET 0 0 0
		CHANNELS 3 Zrotation Yrotation Xrotation
		JOINT LeftUpLeg
		{
			OFFSET 1.53139 -1.83434 0.76626
			CHANNELS 3 Zrotation Yrotation Xrotation
			JOINT LeftLeg
			{
				OFFSET 2.56112 -7.03663 0.00000
				CHANNELS 3 Zrotation Yrotation Xrotation
				JOINT LeftFoot
				{
					OFFSET 2.59983 -7.14299 0.00000
					CHANNELS 3 Zrotation Yrotation Xrotation
					JOINT LeftToeBase
					{
						OFFSET 0.13742 -0.37757 2.00054
						CHANNELS 3 Zrotation Yrotation Xrotation
						End Site
						{
							OFFSET 0.00000 -0.00000 1.02897
						}
					}
				}
			}
		}
	}
	JOINT RHipJoint
	{
		OFFSET 0 0 0
		CHANNELS 3 Zrotation Yrotation Xrotation
		JOINT RightUpLeg
		{
			OFFSET -1.40122 -1.83435 0.76627
			CHANNELS 3 Zrotation Yrotation Xrotation
			JOINT RightLeg
			{
				OFFSET -2.54052 -6.98003 0.00000
				CHANNELS 3 Zrotation Yrotation Xrotation
				JOINT RightFoot
				{
					OFFSET -2.63179 -7.23079 0.00000
					CHANNELS 3 Zrotation Yrotation Xrotation
					JOINT RightToeBase
					{
						OFFSET -0.24131 -0.66299 2.03908
						CHANNELS 3 Zrotation Yrotation Xrotation
						End Site
						{
							OFFSET -0.00000 -0.00000 1.07391
						}
					}
				}
			}
		}
	}
	JOINT LowerBack
	{
		OFFSET 0 0 0
		CHANNELS 3 Zrotation Yrotation Xrotation
		JOINT Spine
		{
			OFFSET 0.01174 2.10302 -0.29778
			CHANNELS 3 Zrotation Yrotation Xrotation
			JOINT Spine1
			{
				OFFSET 0.00772 2.13227 -0.01247
				CHANNELS 3 Zrotation Yrotation Xrotation
				JOINT Neck
				{
					OFFSET 0 0 0
					CHANNELS 3 Zrotation Yrotation Xrotation
					JOINT Neck1
					{
						OFFSET -0.09219 1.60848 0.31481
						CHANNELS 3 Zrotation Yrotation Xrotation
						JOINT Head
						{
							OFFSET 0.13974 1.65456 -0.31134
							CHANNELS 3 Zrotation Yrotation Xrotation
							End Site
							{
								OFFSET 0.04742 1.69515 -0.14578
							}
						}
					}
				}
				JOINT LeftShoulder
				{
					OFFSET 0 0 0
					CHANNELS 3 Zrotation Yrotation Xrotation
					JOINT LeftArm
					{
						OFFSET 3.24909 1.02882 -0.23993
						CHANNELS 3 Zrotation Yrotation Xrotation
						JOINT LeftForeArm
						{
							OFFSET 5.32955 -0.00000 -0.00000
							CHANNELS 3 Zrotation Yrotation Xrotation
							JOINT LeftHand
							{
								OFFSET 3.69232 -0.00000 -0.00000
								CHANNELS 3 Zrotation Yrotation Xrotation
								JOINT LeftFingerBase
								{
									OFFSET 0 0 0
									CHANNELS 3 Zrotation Yrotation Xrotation
									JOINT LeftHandIndex1
									{
										OFFSET 0.53660 -0.00000 -0.00000
										CHANNELS 3 Zrotation Yrotation Xrotation
										End Site
										{
											OFFSET 0.43262 -0.00000 -0.00000
										}
									}
								}
								JOINT LThumb
								{
									OFFSET 0 0 0
									CHANNELS 3 Zrotation Yrotation Xrotation
									End Site
									{
										OFFSET 0.43922 -0.00000 0.43922
									}
								}
							}
						}
					}
				}
				JOINT RightShoulder
				{
					OFFSET 0 0 0
					CHANNELS 3 Zrotation Yrotation Xrotation
					JOINT RightArm
					{
						OFFSET -3.21387 0.93002 -0.34594
						CHANNELS 3 Zrotation Yrotation Xrotation
						JOINT RightForeArm
						{
							OFFSET -5.23431 -0.00000 0.00000
							CHANNELS 3 Zrotation Yrotation Xrotation
							JOINT RightHand
							{
								OFFSET -3.55301 -0.00000 -0.00000
								CHANNELS 3 Zrotation Yrotation Xrotation
								JOINT RightFingerBase
								{
									OFFSET 0 0 0
									CHANNELS 3 Zrotation Yrotation Xrotation
									JOINT RightHandIndex1
									{
										OFFSET -0.77252 -0.00000 -0.00000
										CHANNELS 3 Zrotation Yrotation Xrotation
										End Site
										{
											OFFSET -0.62283 -0.00000 -0.00000
										}
									}
								}
								JOINT RThumb
								{
									OFFSET 0 0 0
									CHANNELS 3 Zrotation Yrotation Xrotation
									End Site
									{
										OFFSET -0.63234 -0.00000 0.63234
									}
								}
							}
						}
					}
				}
			}
		}
	}
}
MOTION
Frames: 6
Frame Time: .0083333
8.4737 17.6828 6.4933 -7.8056 61.7438 -9.5640 0.0000 0.0000 0.0000 -18.2478 -7.2125 -7.3349 3.2411 11.0755 32.5349 0.6815 -8.7543 -15.0348 0.0278 1.0761 2.9582 0.0000 0.0000 0.0000 22.8955 -0.5242 -19.7167 -3.6467 -11.6748 34.5911 -1.1845 11.8178 -19.9328 -1.1208 6.7250 -18.9033 -6.0582 -0.3483 13.4156 1.4183 -1.1993 1.9214 5.1453 -0.4388 -5.3332 -13.4878 -10.1775 -5.4213 12.2383 -16.0570 38.3956 5.2799 -6.9827 17.2605 -0.0000 -0.0000 0.0000 -81.7340 7.8189 24.5567 20.0722 -30.7292 -5.5682 -0.0000 -0.0000 3.8237 24.9980 30.1148 13.1670 -7.1250 0.0000 -0.0000 -7.5757 62.4420 -3.2212 -0.0000 -0.0000 0.0000 88.7651 -5.7801 6.6280 -28.9051 39.9362 -10.6997 0.0000 -0.0000 -0.9936 -24.2806 8.8251 -3.9590 7.1250 -0.0000 -0.0000 1.8859 -20.3163 1.1144
8.4389 17.6970 6.5138 -7.5013 61.1627 -9.1357 0.0000 0.0000 0.0000 -18.2094 -7.2637 -7.3288 3.1841 10.9872 32.2368 0.6767 -8.2312 -14.8969 0.0342 1.1939 3.2824 0.0000 0.0000 0.0000 22.9947 -1.3709 -20.3291 -3.7017 -11.7525 34.8618 -1.3611 8.9173 -20.9072 -0.9638 6.2508 -17.5137 -6.0258 -0.3376 13.2970 1.3138 -1.1806 1.9147 5.0088 -0.4334 -5.2803 -13.4515 -10.1603 -5.5836 12.1154 -15.9949 38.4128 5.2191 -6.9636 17.2744 0.0000 -0.0000 0.0000 -81.7239 7.2281 23.1125 19.5754 -30.1274 -5.3166 -0.0000 -0.0000 4.9495 22.7936 26.0839 10.4685 -7.1250 0.0000 -0.0000 -7.9534 57.7719 -2.4970 0.0000 -0.0000 0.0000 89.1353 -6.0149 6.5738 -28.6226 39.6831 -10.5189 0.0000 -0.0000 -0.6226 -24.1217 8.8149 -3.9254 7.1250 -0.0000 -0.0000 1.9997 -20.3395 1.1807
8.4034 17.7142 6.5348 -7.4978 60.5021 -9.1013 0.0000 0.0000 0.0000 -17.9882 -7.0281 -7.2746 3.1320 10.9057 31.9627 0.6767 -7.8176 -14.8358 0.0326 1.1654 3.2039 0.0000 0.0000 0.0000 23.1910 -2.1286 -20.6920 -3.7403 -11.8066 35.0512 -1.4255 6.6434 -21.3715 -0.5336 4.6806 -12.9998 -5.8398 -0.2834 13.3017 1.2497 -1.0856 1.9398 4.8177 -0.3916 -5.2737 -13.4802 -10.1587 -5.6179 12.1214 -15.9937 38.3459 5.2195 -6.9715 17.2484 -0.0000 -0.0000 0.0000 -81.8754 6.3140 21.6499 18.8346 -29.2126 -4.9498 -0.0000 -0.0000 5.2858 23.3669 24.5999 10.1959 -7.1250 0.0000 -0.0000 -6.6958 56.3618 -1.8714 -0.0000 -0.0000 0.0000 89.5093 -6.1770 6.3918 -28.2218 39.3196 -10.2639 0.0000 -0.0000 -0.4156 -23.8498 8.7552 -3.8498 7.1250 -0.0000 -0.0000 2.1931 -20.4249 1.2908
8.3605 17.7274 6.5568 -7.5450 59.8574 -9.1729 0.0000 0.0000 0.0000 -17.7308 -6.7953 -7.1743 3.0829 10.8281 31.7022 0.6814 -7.3537 -14.8247 0.0220 0.9568 2.6299 0.0000 0.0000 0.0000 23.4456 -2.7994 -20.9064 -3.7715 -11.8500 35.2034 -1.4528 4.2631 -21.7949 -0.3087 3.5718 -9.8751 -5.7667 -0.2100 13.4324 1.2562 -0.9840 1.9668 4.7681 -0.3413 -5.3311 -13.4930 -10.1450 -5.5686 12.1066 -15.9700 38.2357 5.2126 -6.9735 17.1664 0.0000 0.0000 0.0000 -82.0379 5.5244 19.9252 18.1984 -28.4105 -4.6432 -0.0000 -0.0000 6.3747 23.3111 24.4852 10.1257 -7.1250 0.0000 -0.0000 -6.7095 56.2307 -1.8539 0.0000 0.0000 0.0000 89.7843 -6.2991 6.3167 -27.7663 38.9002 -9.9766 0.0000 -0.0000 -0.1451 -23.3848 8.5361 -3.6725 7.1250 -0.0000 -0.0000 2.5213 -20.6966 1.4689
8.3169 17.7324 6.5789 -7.2062 59.2122 -8.9531 0.0000 0.0000 0.0000 -17.6989 -6.5155 -7.0330 3.0402 10.7599 31.4744 0.6968 -6.8102 -14.9307 0.0112 0.6833 1.8778 0.0000 0.0000 0.0000 23.5247 -3.7733 -21.1653 -3.7989 -11.8879 35.3364 -1.4199 1.9821 -21.9721 -0.2779 3.3908 -9.3688 -5.8996 -0.1164 13.5901 1.2111 -0.8897 2.0063 4.7823 -0.2913 -5.3865 -13.4783 -10.1322 -5.6517 12.0417 -15.9356 38.2632 5.1828 -6.9643 17.1839 0.0000 -0.0000 0.0000 -82.0604 5.0933 18.6635 17.9587 -28.1043 -4.5298 -0.0000 -0.0000 6.9702 23.1735 24.8984 10.2159 -7.1250 0.0000 -0.0000 -7.0246 56.6305 -2.0096 0.0000 -0.0000 0.0000 90.0256 -6.4030 6.2586 -27.2636 38.4294 -9.6625 0.0000 0.0000 0.3138 -23.0444 8.7181 -3.6892 7.1250 -0.0000 -0.0000 2.7716 -20.5240 1.6258
8.2764 17.7408 6.5980 -6.8307 58.5705 -8.5843 0.0000 0.0000 0.0000 -17.7181 -6.4011 -6.9553 2.9972 10.6906 31.2433 0.7098 -6.1955 -15.0275 0.0074 0.5553 1.5260 0.0000 0.0000 0.0000 23.4617 -4.5553 -21.4926 -3.8287 -11.9288 35.4807 -1.3563 0.3734 -21.9112 -0.1315 2.3378 -6.4403 -5.9715 -0.0217 13.6466 1.1521 -0.7829 1.9888 4.7429 -0.2355 -5.4495 -13.5059 -10.1075 -5.7453 11.9939 -15.8818 38.3369 5.1755 -6.9492 17.2347 -0.0000 0.0000 0.0000 -82.0646 4.8814 17.9309 17.9325 -28.0707 -4.5174 -0.0000 -0.0000 6.8051 23.9481 26.3332 11.1455 -7.1250 0.0000 -0.0000 -6.8045 58.2893 -2.2187 -0.0000 0.0000 0.0000 90.2315 -6.5545 6.1366 -26.7543 37.9439 -9.3477 0.0000 0.0000 0.9027 -22.9340 8.9286 -3.7572 7.1250 -0.0000 -0.0000 2.8567 -20.3045 1.6900
